# xmcd
#
# Track frame offsets:
#	150
#	25970
#	47205
#	62587
#	91175
#	110550
#	125400
#	142580
#	157697
#	171917
#	191657
#	238166
#
# Disc length: 3749 seconds
#
# Revision: 9
# Processed by: cddbd v1.5.2PL0 Copyright (c) Steve Scherf et al.
# Submitted via: audiograbber 1.83.01
#
DISCID=980ea30c
DTITLE=Jarabe de Palo - De vuelta y vuelta
DYEAR=2001
DGENRE=Latin
TTITLE0=De vuelta y vuelta
TTITLE1=Tiempo
TTITLE2=En lo puro no hay futuro
TTITLE3=Dos días en la vida
TTITLE4=La luz de tu corazón
TTITLE5=Completo incompleto
TTITLE6=Cara de azul
TTITLE7=Agustito con la vida
TTITLE8=De los libros (no se aprende)
TTITLE9=Viaje para locos
TTITLE10=Mama
TTITLE11=Data Track
EXTD=2001 Virgin Records España YEAR: 2001
EXTT0=Fer
EXTT1=
EXTT2=
EXTT3=
EXTT4=
EXTT5=
EXTT6=
EXTT7=
EXTT8=
EXTT9=
EXTT10=
EXTT11=
PLAYORDER=
